<?xml version="1.0" encoding="utf-8"?>
<!-- Generator: Adobe Illustrator 28.1.0, SVG Export Plug-In . SVG Version: 6.00 Build 0)  -->
<svg version="1.1" id="圖層_1" xmlns="http://www.w3.org/2000/svg" xmlns:xlink="http://www.w3.org/1999/xlink" x="0px" y="0px"
	 viewBox="0 0 1920 1740.5" style="enable-background:new 0 0 1920 1740.5;" xml:space="preserve">
<style type="text/css">
	.st0{fill:#922783;}
</style>
<path class="st0" d="M1900.8,31.3H19.2C8.6,31.3,0,39.9,0,50.5v153.6c0,10.6,8.6,19.2,19.2,19.2h1881.6c10.6,0,19.2-8.6,19.2-19.2
	V50.5C1920,39.9,1911.4,31.3,1900.8,31.3z M1900.8,1528.9H19.2c-10.6,0-19.2,8.6-19.2,19.2v153.6c0,10.6,8.6,19.2,19.2,19.2h1881.6
	c10.6,0,19.2-8.6,19.2-19.2v-153.6C1920,1537.5,1911.4,1528.9,1900.8,1528.9z M1900.8,780.1H19.2C8.6,780.1,0,788.7,0,799.3v153.6
	c0,10.6,8.6,19.2,19.2,19.2h1881.6c10.6,0,19.2-8.6,19.2-19.2V799.3C1920,788.7,1911.4,780.1,1900.8,780.1z"/>
</svg>
